# xmcd CD database file
#
# Track frame offsets:
#	151
#	11763
#	24774
#	38139
#	51534
#	65823
#	78298
#	92557
#	104746
#	118152
#	133212
#	149048
#	161517
#	176446
#	193147
#	207471
#	221237
#	235580
#	248072
#	261648
#
# Disc length: 3640 seconds
#
# Revision: 0
# Processed by: cddbd v1.5.1PL0 Copyright (c) Steve Scherf et al.
# Submitted via: CDex 1.51
#
DISCID=360e3614
DTITLE=Lester Young - Lester Swings
DYEAR=1900
DGENRE=Jazz
TTITLE0=Lester Swings
TTITLE1=A Foggy Day
TTITLE2=Let's Fall in Love
TTITLE3=Slow Motion Blues
TTITLE4=September In The Rain
TTITLE5=Undercover Girl Blues
TTITLE6=Jeepers, Creepers
TTITLE7=Little Pee Blues
TTITLE8=Thou Swell
TTITLE9=It All Depends On You
TTITLE10=Neenah
TTITLE11=Count Every Star
TTITLE12='Deed I Do
TTITLE13=Polka Dots and Moonbeams
TTITLE14=Encore
TTITLE15=Too Marvelous For Words
TTITLE16=East Of The Sun
TTITLE17=Something To Remember You By
TTITLE18=On The Sunny Side Of The Street
TTITLE19=Easy Does It
EXTD=
EXTT0=
EXTT1=
EXTT2=
EXTT3=
EXTT4=
EXTT5=
EXTT6=
EXTT7=
EXTT8=
EXTT9=
EXTT10=
EXTT11=
EXTT12=
EXTT13=
EXTT14=
EXTT15=
EXTT16=
EXTT17=
EXTT18=
EXTT19=
PLAYORDER=
